inDegrees=yes
name=ik_lifting_orientations
DataType=double
version=3
OpenSimVersion=4.5-2024-01-10-34fd6af
endheader
time	pelvis_tilt	pelvis_list	pelvis_rotation	pelvis_tx	pelvis_ty	pelvis_tz	hip_flexion_r	hip_adduction_r	hip_rotation_r	knee_angle_r	knee_angle_r_beta	ankle_angle_r	subtalar_angle_r	mtp_angle_r	hip_flexion_l	hip_adduction_l	hip_rotation_l	knee_angle_l	knee_angle_l_beta	ankle_angle_l	subtalar_angle_l	mtp_angle_l	lumbar_extension	lumbar_bending	lumbar_rotation	arm_flex_r	arm_add_r	arm_rot_r	elbow_flex_r	pro_sup_r	wrist_flex_r	wrist_dev_r	arm_flex_l	arm_add_l	arm_rot_l	elbow_flex_l	pro_sup_l	wrist_flex_l	wrist_dev_l
1.91	-0.5031406863521009	1.660975260695524	-93.48727944769563	0	0.9399999998679526	0	44.97884294083315	-10.1637267482865	0	60.13835003146644	1.049612214765925	-5.041583129495044	0	0	44.97884294083315	-10.1637267482865	0	60.13835003146644	1.049612214765925	-5.041583129495044	0	0	-3.275795522216448	-1.764193339611651	-13.32351495473674	76.48669339206923	26.69457412035947	52.5457435373826	33.88243884182464	1.234596845897201	0	0	0	-11.67702437941518	0	88.79322512572688	1.234596845897201	0	0
1.92	-0.512068530694691	1.793856952695502	-93.59933266603977	0	0.9399999998679526	0	44.97884871513207	-10.16357053363294	0	60.13832043834712	1.049611698268557	-5.041531371496426	0	0	44.97884871513207	-10.16357053363294	0	60.13832043834712	1.049611698268557	-5.041531371496426	0	0	-2.831308633112883	-1.670802074719272	-13.19700554004944	75.82693790145125	26.34720082269419	52.99549233691507	32.08524892488197	1.234362401139942	0	0	0	-11.6774889696387	0	88.79345425237818	1.234362401139942	0	0
1.93	-0.48592194099781	1.98545647677996	-93.8436443343334	0	0.9399999998679526	0	44.97885504021273	-10.16339951496034	0	60.13828802403411	1.04961113253207	-5.04147472396526	0	0	44.97885504021273	-10.16339951496034	0	60.13828802403411	1.04961113253207	-5.04147472396526	0	0	-2.324669187785921	-1.613920062689771	-12.94545346740242	75.19902763920862	26.1548685284139	53.52743820603545	30.13500900494173	1.234105582669876	0	0	0	-11.67799790511743	0	88.79370524522143	1.234105582669876	0	0
1.94	-0.4607113217417104	2.168880373236117	-94.02348273354274	0	0.9399999998679526	0	44.97887079829474	-10.16300997860537	0	60.13819765763179	1.049609555340816	-5.041346978744465	0	0	44.97887079829474	-10.16300997860537	0	60.13819765763179	1.049609555340816	-5.041346978744465	0	0	-2.005110482192611	-1.60721694464299	-12.84331760934031	74.72708163189961	25.77999034819463	53.96730385439797	28.44348701403944	1.233443252953399	0	0	0	-11.67935085067599	0	88.79435255159814	1.233443252953399	0	0
1.95	-0.5108357425044067	2.304793634751775	-93.67481442640975	0	0.9399999998679526	0	44.97887692855461	-10.16284451817419	0	60.13816625356245	1.049609007236408	-5.041292221670966	0	0	44.97887692855461	-10.16284451817419	0	60.13816625356245	1.049609007236408	-5.041292221670966	0	0	-1.761837050352279	-1.499589314990882	-13.03566752178386	74.28420450790244	25.26041696436559	54.29695256751832	26.69505211336996	1.233194321170253	0	0	0	-11.67984416103062	0	88.79459583665657	1.233194321170253	0	0
1.96	-0.5402193176758084	2.50046825299024	-93.45114133482099	0	0.9399999998679526	0	44.97888818070795	-10.16252755750433	0	60.13810663014337	1.049607966611434	-5.041185543988578	0	0	44.97888818070795	-10.16252755750433	0	60.13810663014337	1.049607966611434	-5.041185543988578	0	0	-1.450000331282427	-1.419341722758056	-13.26770445269076	73.73660470175203	24.66139454195123	54.68016674456253	25.17178300165342	1.232738581317406	0	0	0	-11.68074766089154	0	88.79504123860008	1.232738581317406	0	0
1.97	-0.5717458297194582	2.696033280014095	-93.24604645078588	0	0.9399999998679526	0	44.97893009802052	-10.16167349626586	0	60.13784455812186	1.049603392591781	-5.040918894385169	0	0	44.97893009802052	-10.16167349626586	0	60.13784455812186	1.049603392591781	-5.040918894385169	0	0	-1.257954226491318	-1.355265210960611	-13.40626797404602	73.18897707748043	23.59460682048782	54.90939808264782	24.09146167005897	1.230898322533446	0	0	0	-11.68463104564784	0	88.79683975813573	1.230898322533446	0	0
1.98	-0.6320714633360213	2.77507675369816	-92.94541683500556	0	0.9399999998679526	0	44.97897025147687	-10.16085953415502	0	60.13759323724331	1.049599006214971	-5.040665185496501	0	0	44.97897025147687	-10.16085953415502	0	60.13759323724331	1.049599006214971	-5.040665185496501	0	0	-1.251280667032189	-1.300557779675371	-13.7091450762359	72.64413792705176	22.54401164121407	55.00262672891736	23.08712806203836	1.229133882286179	0	0	0	-11.6883568218326	0	88.79856417884217	1.229133882286179	0	0
1.99	-0.6425368240516242	2.890043581276413	-92.89089278350615	0	0.9399999998679526	0	44.97901281740793	-10.16003611813038	0	60.13732119690624	1.049594258215391	-5.040411789206528	0	0	44.97901281740793	-10.16003611813038	0	60.13732119690624	1.049594258215391	-5.040411789206528	0	0	-1.221643307516091	-1.303810341180667	-13.72642799037751	72.14540548755609	21.45956000115975	55.04145799514914	22.07799657527837	1.227244990316461	0	0	0	-11.69237403606003	0	88.80041022914627	1.227244990316461	0	0
2	-0.6690581638518858	3.02174012122987	-92.8267529804599	0	0.9399999998679526	0	44.97901766492459	-10.15986637687879	0	60.13729868972297	1.049593865390938	-5.040352438521684	0	0	44.97901766492459	-10.15986637687879	0	60.13729868972297	1.049593865390938	-5.040352438521684	0	0	-1.141867496676224	-1.260637201310916	-13.70208837409473	71.90147799714498	20.82169223421382	55.02717488889056	20.49656010839196	1.227062245213989	0	0	0	-11.69271444007867	0	88.80058882846495	1.227062245213989	0	0
2.01	-0.6744774394511304	3.0826525749194	-92.7017778707324	0	0.9399999998679526	0	44.97905052872368	-10.15921015435601	0	60.13709151716102	1.049590249547612	-5.040148718756789	0	0	44.97905052872368	-10.15921015435601	0	60.13709151716102	1.049590249547612	-5.040148718756789	0	0	-1.195105092099704	-1.272848448775567	-13.83566175756487	71.48873409352788	19.8958030569537	54.82106942785927	19.35294125513056	1.225613277265211	0	0	0	-11.69578174087095	0	88.80200493231131	1.225613277265211	0	0
2.02	-0.7228071448241276	3.096460772748643	-92.52299419579803	0	0.9399999998679526	0	44.97908027972747	-10.15860122722671	0	60.13690621310815	1.049587015381772	-5.039958478849849	0	0	44.97908027972747	-10.15860122722671	0	60.13690621310815	1.049587015381772	-5.039958478849849	0	0	-1.372295950292047	-1.258862819112638	-14.011693414691	71.13876108750746	18.97959507760159	54.59005584842112	18.21124152126061	1.224308601274893	0	0	0	-11.69853266552543	0	88.80328001667422	1.224308601274893	0	0
2.03	-0.7825129614803441	3.161621526841394	-92.09871108529728	0	0.9399999998679526	0	44.9790862827651	-10.15844188294185	0	60.13687546076105	1.049586478652062	-5.03990609159754	0	0	44.9790862827651	-10.15844188294185	0	60.13687546076105	1.049586478652062	-5.03990609159754	0	0	-1.462983379091656	-1.222681627844372	-14.32559534044683	70.73504937460346	17.92888883518889	54.33858201993133	18.21705649337656	1.224064272407178	0	0	0	-11.69901755543838	0	88.80351880325996	1.224064272407178	0	0
2.04	-0.7175957822580793	3.155899055364775	-92.46693783180481	0	0.9399999998679526	0	44.97909298067377	-10.15826424067654	0	60.13684114383688	1.049585879708746	-5.039847707866074	0	0	44.97909298067377	-10.15826424067654	0	60.13684114383688	1.049585879708746	-5.039847707866074	0	0	-1.698218006832768	-1.334689602744917	-13.83150966206215	70.4714279367025	16.92242689766592	54.0324111634668	18.14655980480635	1.223791628490028	0	0	0	-11.69955868363607	0	88.80378526260661	1.223791628490028	0	0
2.05	-0.7273622755061502	3.032921590135461	-92.51533614041543	0	0.9399999998679526	0	44.97909933707184	-10.15809580660626	0	60.13680857190994	1.049585311221378	-5.039792370310714	0	0	44.97909933707184	-10.15809580660626	0	60.13680857190994	1.049585311221378	-5.039792370310714	0	0	-2.001962944114968	-1.365410969015084	-13.66351309079003	70.1267111497433	15.92232482026457	53.44871966140916	18.65199699302788	1.223532853877173	0	0	0	-11.70007232602813	0	88.80403816725727	1.223532853877173	0	0
2.06	-0.7020214677170641	2.902423975380284	-92.64381379204852	0	0.9399999998679526	0	44.97919205265711	-10.15639586746707	0	60.13620810597229	1.049574831113719	-5.039278587721872	0	0	44.97919205265711	-10.15639586746707	0	60.13620810597229	1.049574831113719	-5.039278587721872	0	0	-2.188432668757066	-1.410713178481046	-13.53154249588481	69.69164151137738	15.11875351369313	52.60026058373626	18.7511275051784	1.219381162120505	0	0	0	-11.70895653823254	0	88.80809569624664	1.219381162120505	0	0
2.07	-0.6919927447477766	2.842051351244865	-92.8241781411789	0	0.9399999998679526	0	44.97927816789252	-10.15482261370014	0	60.13565070691894	1.049565102664991	-5.038803674096338	0	0	44.97927816789252	-10.15482261370014	0	60.13565070691894	1.049565102664991	-5.038803674096338	0	0	-2.359784806799663	-1.449201399075952	-13.22959747260919	69.45593268063206	14.39075089238298	51.63553754737611	18.6277579669791	1.215522687201945	0	0	0	-11.71721666335264	0	88.8118666587939	1.215522687201945	0	0
2.08	-0.7079706936935897	2.845809386114984	-92.74464880056681	0	0.9399999998679526	0	44.97928050112751	-10.15476179514669	0	60.13563871539135	1.049564893373352	-5.038783795757247	0	0	44.97928050112751	-10.15476179514669	0	60.13563871539135	1.049564893373352	-5.038783795757247	0	0	-2.456338651494109	-1.427578803425527	-13.34590670751803	69.29617573110778	14.00610733161015	51.18145432651403	18.45202093410789	1.215427396586262	0	0	0	-11.71740624402082	0	88.81195978788152	1.215427396586262	0	0
